<svg viewBox="0 0 48 57" fill="#2D2D2D" xmlns="http://www.w3.org/2000/svg">
<path d="M8.53396 29.5901H7.13396C7.13396 24.5701 11.341 20.4861 16.512 20.4861V21.8861C12.113 21.8861 8.53396 25.3421 8.53396 29.5901Z"/>
<path d="M44.009 20.1881C41.341 16.9201 38.2 15.0481 34.458 14.5071C36.017 13.5301 37.193 12.3661 38.001 11.0021C39.533 8.4181 39.72 5.2341 38.573 1.2681L38.474 0.926097L37.281 0.100098L36.91 0.141098C32.622 0.613098 29.845 2.0841 28.171 4.7691C27.395 6.0141 26.852 7.5261 26.522 9.4121C26.347 9.0021 26.16 8.6051 25.959 8.2181C24.723 5.8391 22.912 3.7601 20.425 1.8611L19.978 1.5201L19.454 1.7251C17.167 2.6211 15.838 4.3551 15.502 6.8811L15.426 7.4561L15.887 7.8081C18.736 9.9821 19.465 11.7211 19.985 15.1551C18.707 14.7121 17.341 14.3391 15.964 14.3391C11.157 14.3391 7.25796 16.2521 4.04496 20.1871C0.307956 24.7641 -0.216044 34.5681 2.90096 41.5951C5.16196 46.6931 7.55196 50.5591 10.006 53.0881C12.341 55.4941 14.746 56.7141 17.152 56.7141C19.644 56.7141 20.734 56.1781 21.609 55.7471C22.3 55.4071 22.8 55.1611 24.003 55.1611H24.052C25.255 55.1611 25.755 55.4071 26.446 55.7471C27.321 56.1781 28.411 56.7141 30.903 56.7141C33.31 56.7141 35.714 55.4941 38.049 53.0881C40.503 50.5601 42.893 46.6931 45.154 41.5951C48.27 34.5691 47.746 24.7651 44.009 20.1881ZM29.868 5.8271C31.163 3.7491 33.295 2.6151 36.751 2.1741C37.629 5.4141 37.475 7.9711 36.282 9.9821C34.948 12.2321 32.276 13.8601 28.132 14.9431C28.109 10.6141 28.654 7.7731 29.868 5.8271ZM17.581 6.5971C17.872 5.2961 18.55 4.3951 19.678 3.8151C22.919 6.4001 25.254 9.5481 26.145 15.8291C26.145 15.8411 26.146 15.8531 26.146 15.8641C25.294 16.1801 24.524 16.4411 24.052 16.4411H24.003C23.569 16.4411 22.885 16.2211 22.115 15.9401C21.552 11.6871 20.838 9.2461 17.581 6.5971ZM43.326 40.7851C41.161 45.6661 38.903 49.3371 36.614 51.6961C34.67 53.6991 32.748 54.7151 30.903 54.7151C28.876 54.7151 28.125 54.3451 27.329 53.9541C26.575 53.5831 25.72 53.1621 24.052 53.1621H24.003C22.334 53.1621 21.48 53.5831 20.726 53.9541C19.93 54.3461 19.179 54.7151 17.152 54.7151C15.307 54.7151 13.385 53.6991 11.441 51.6961C9.15196 49.3371 6.89396 45.6671 4.72896 40.7851C3.33296 37.6371 2.68096 33.8201 2.89296 30.0381C3.09496 26.4371 4.07996 23.3071 5.59396 21.4521C8.44196 17.9631 11.737 16.3391 15.964 16.3391C17.496 16.3391 19.189 16.9771 20.683 17.5401C21.965 18.0231 23.071 18.4401 24.002 18.4401H24.051C24.982 18.4401 26.089 18.0231 27.37 17.5401C28.864 16.9771 30.557 16.3391 32.089 16.3391C36.316 16.3391 39.611 17.9641 42.459 21.4521C43.974 23.3071 44.958 26.4371 45.16 30.0381C45.374 33.8211 44.722 37.6371 43.326 40.7851Z"/>
</svg>

