<svg viewBox="0 0 70 40" fill="none" xmlns="http://www.w3.org/2000/svg">
<path d="M49.9809 10.7309L56.1599 27.7419L58.0399 27.0589L49.4039 3.28694L55.1709 2.28594L54.8289 0.314941L47.7389 1.54594L47.1169 2.84694L47.7959 4.71494L24.2839 8.88094L21.5349 3.09994H26.0999V1.09994H16.7999V3.09994H19.3209L24.4399 13.8679L12.4169 26.4859L12.7539 28.1729L29.4139 30.9359C29.5279 32.3359 30.3459 33.5819 31.6089 34.2389L32.5319 32.4649C31.8339 32.1009 31.3999 31.3869 31.3999 30.5999C31.3999 29.4419 32.3419 28.4999 33.4999 28.4999C34.6579 28.4999 35.5999 29.4419 35.5999 30.5999C35.5999 31.1009 35.4209 31.5859 35.0959 31.9649L36.6149 33.2659C37.2499 32.5239 37.5999 31.5769 37.5999 30.5999C37.5999 29.6379 37.2659 28.7539 36.7099 28.0539L49.9809 10.7309ZM29.7419 28.9629L15.1289 26.5399L25.3589 15.8029L30.8909 27.4399C30.3969 27.8479 30.0019 28.3689 29.7419 28.9629ZM32.6959 26.5799L25.1739 10.7549L48.4889 6.62394L49.1699 8.49994L35.1239 26.8359C34.6249 26.6199 34.0769 26.4999 33.4999 26.4999C33.2249 26.4999 32.9559 26.5279 32.6959 26.5799Z"/>
<path d="M13.3999 37.9999C7.3349 37.9999 2.3999 33.0649 2.3999 26.9999C2.3999 20.9349 7.3349 15.9999 13.3999 15.9999C15.2149 15.9999 17.0129 16.4509 18.5999 17.3039L19.5469 15.5419C17.6689 14.5329 15.5439 13.9999 13.3999 13.9999C6.2319 13.9999 0.399902 19.8319 0.399902 26.9999C0.399902 34.1679 6.2319 39.9999 13.3999 39.9999C16.0419 39.9999 18.5859 39.2119 20.7559 37.7199C22.8739 36.2639 24.5009 34.2389 25.4589 31.8629L23.6039 31.1139C21.9169 35.2969 17.9109 37.9999 13.3999 37.9999Z"/>
<path d="M22.4669 20.7699C23.5599 22.3579 24.2169 24.2119 24.3659 26.1339L26.3599 25.9789C26.1829 23.7069 25.4069 21.5139 24.1139 19.6359L22.4669 20.7699Z"/>
<path d="M7.3719 23.0599C6.6049 24.2319 6.1999 25.5939 6.1999 26.9999C6.1999 29.0069 7.0469 30.9369 8.5239 32.2969L9.4719 31.2669C8.2819 30.1719 7.5999 28.6159 7.5999 26.9999C7.5999 25.8669 7.9259 24.7699 8.5439 23.8269L7.3719 23.0599Z"/>
<path d="M56.7999 13.9999V15.9999C62.8649 15.9999 67.7999 20.9349 67.7999 26.9999C67.7999 33.0649 62.8649 37.9999 56.7999 37.9999C50.7349 37.9999 45.7999 33.0649 45.7999 26.9999C45.7999 23.3399 47.6129 19.9299 50.6499 17.8779L49.5299 16.2209C45.9419 18.6449 43.7999 22.6749 43.7999 26.9999C43.7999 34.1679 49.6319 39.9999 56.7999 39.9999C63.9679 39.9999 69.7999 34.1679 69.7999 26.9999C69.7999 19.8319 63.9679 13.9999 56.7999 13.9999Z"/>
<path d="M50.6849 23.1969C49.9749 24.3359 49.5999 25.6509 49.5999 26.9999C49.5999 29.0639 50.4879 31.0319 52.0359 32.3989L52.9629 31.3489C51.7159 30.2479 50.9999 28.6629 50.9999 26.9999C50.9999 25.9129 51.3019 24.8539 51.8729 23.9369L50.6849 23.1969Z"/>
<path d="M35.5669 35.2199L34.4769 30.1879L32.5229 30.6119L33.5609 35.4059L32.5069 35.5039L32.6929 37.4959L36.9929 37.0959L36.8069 35.1039L35.5669 35.2199Z"/>
</svg>

