<svg viewBox="0 0 43 62" fill="none" xmlns="http://www.w3.org/2000/svg">
<path d="M35.8248 28.0209L37.1078 28.5819C38.0398 26.4499 38.5128 24.1789 38.5128 21.8339C38.5128 18.0599 37.2938 14.4929 34.9888 11.5169L33.8818 12.3739C35.9958 15.1029 37.1128 18.3739 37.1128 21.8339C37.1118 23.9849 36.6788 26.0669 35.8248 28.0209Z"/>
<path d="M16.9878 5.62491L17.3738 6.97091C17.8578 6.83191 18.3548 6.71491 18.8518 6.62491L18.5998 5.24791C18.0588 5.34591 17.5158 5.47291 16.9878 5.62491Z"/>
<path d="M4.94583 19.5129L6.33283 19.7039C7.02083 14.7109 10.1218 10.3559 14.6278 8.05491L13.9908 6.80791C9.07783 9.31691 5.69583 14.0659 4.94583 19.5129Z"/>
<path d="M34.7908 29.9869C34.5048 30.4469 34.1898 30.8979 33.8558 31.3269L34.9608 32.1869C35.3248 31.7199 35.6678 31.2279 35.9798 30.7259L34.7908 29.9869Z"/>
<path d="M42.6258 21.8339C42.6258 10.2679 33.2158 0.85791 21.6498 0.85791C10.0838 0.85791 0.673828 10.2679 0.673828 21.8339C0.673828 26.2999 2.05783 30.5629 4.67783 34.1629L4.72483 34.2199C4.77283 34.2759 9.52483 39.8949 10.7668 42.1119C11.8988 44.1339 12.5018 47.0209 12.5018 48.3289V55.4999C12.5018 58.2019 14.6468 61.3429 17.4128 61.3429H25.8878C28.6538 61.3429 30.7988 58.2019 30.7988 55.4999V48.3289C30.7988 47.0219 31.4018 44.1339 32.5338 42.1119C33.7758 39.8949 38.5278 34.2759 38.5758 34.2199L38.6228 34.1629C41.2408 30.5629 42.6258 26.2989 42.6258 21.8339ZM14.4888 47.9319H28.8098C28.8018 48.0709 28.7978 48.2039 28.7978 48.3289V50.3089H14.5008V48.3289C14.5008 48.2039 14.4968 48.0709 14.4888 47.9319ZM23.5838 45.9319H19.7168V30.9669L17.1098 25.5009L21.4338 22.6939H21.8658L26.1898 25.5009L23.5828 30.9669V45.9319H23.5838ZM14.5008 52.3089H28.7978V54.1269H14.5008V52.3089ZM25.8868 59.3419H17.4118C16.0568 59.3419 14.8338 57.6799 14.5588 56.1269H28.7398C28.4648 57.6799 27.2418 59.3419 25.8868 59.3419ZM30.7888 41.1349C30.0088 42.5269 29.4178 44.3429 29.0898 45.9319H25.5838V31.4189L28.2698 25.7859L33.2948 21.9279L32.0768 20.3419L27.4228 23.9159L22.4588 20.6939H20.8418L15.8778 23.9159L11.2238 20.3419L10.0058 21.9279L15.0308 25.7859L17.7168 31.4189V45.9309H14.2098C13.8818 44.3419 13.2908 42.5259 12.5108 41.1339C11.1988 38.7919 6.61983 33.3629 6.26583 32.9449C3.91583 29.6979 2.67383 25.8569 2.67383 21.8339C2.67383 11.3709 11.1858 2.85791 21.6498 2.85791C32.1128 2.85791 40.6258 11.3699 40.6258 21.8339C40.6258 25.8569 39.3838 29.6979 37.0338 32.9449C36.6788 33.3639 32.0998 38.7929 30.7888 41.1349Z"/>
</svg>

