<svg viewBox="0 0 28 24" fill="none" xmlns="http://www.w3.org/2000/svg">
<path d="M25.2399 23.4284H2.75993L0.285645 9.71415V7.42843H27.7142L27.6971 9.91986L25.2399 23.4284ZM4.6685 21.1427H23.3314L25.4114 9.71415H2.5885L4.6685 21.1427Z"/>
<path d="M19.3828 6.66843C18.5714 4.38843 16.4114 2.857 13.9999 2.857C11.5885 2.857 9.4285 4.38843 8.61707 6.66843L6.46279 5.90843C7.59422 2.71415 10.6228 0.571289 13.9999 0.571289C17.3771 0.571289 20.4056 2.71415 21.5371 5.90272L19.3828 6.66843Z"/>
<path d="M21.9028 19.4284H5.92565V18.2856H20.9542L22.3199 10.7541L23.4456 10.9599L21.9028 19.4284Z"/>
</svg>
