<svg viewBox="0 0 51 63" fill="#2D2D2D" xmlns="http://www.w3.org/2000/svg">
<path d="M25.8158 54.1961C24.9888 58.6081 24.3048 59.8121 24.0888 60.1001H4.36581C4.14281 59.9361 3.54381 59.0531 3.02381 56.5491C2.55681 54.3011 2.2998 51.4781 2.2998 48.6001C2.2998 42.1651 4.2928 37.3811 5.9648 34.5021C6.8008 33.0631 7.97281 31.5561 9.00781 30.2261C10.5668 28.2221 11.1998 27.3771 11.1998 26.6001V21.0001H19.0998V22.0521L17.9728 23.6461L19.0218 26.3391L18.0008 28.8001L19.0998 30.9871L19.1008 34.1071L19.6388 34.3871C19.6758 34.4061 23.3158 36.3241 24.5028 38.7401L26.2978 37.8591C25.1218 35.4631 22.2928 33.6141 21.0998 32.9141V30.5121L20.1988 28.7191L21.1778 26.3611L20.2268 23.9211L21.0998 22.6871V19.0001H19.8998V14.7001H18.6168C18.6718 14.3591 18.8798 13.8121 19.5228 13.0421C21.4138 16.7811 26.3838 21.7741 26.6048 21.9951L26.9618 22.3521L28.8878 21.3891L28.5008 20.7411C28.4648 20.6811 25.2198 15.2201 24.3688 11.9001H28.2998V5.80013H16.2998C16.2378 5.80013 16.1468 5.79613 16.0298 5.79113C15.1898 5.75813 13.2238 5.68113 10.7828 6.22313C7.6608 6.91713 5.59681 10.8741 5.50981 11.0421L5.27381 11.5021L6.39381 13.6481H10.7498C11.0268 13.6481 11.9138 13.9101 12.1438 14.6981H10.6998V18.9981H9.19981V26.5191C9.04581 26.9181 8.1518 28.0671 7.4288 28.9961C6.4088 30.3071 5.13881 31.9391 4.23481 33.4961C2.43981 36.5901 0.299805 41.7191 0.299805 48.6001C0.299805 51.8361 0.623805 55.0851 1.18781 57.5141C1.90581 60.6001 2.9238 62.1001 4.29981 62.1001H24.2998C25.4948 62.1001 26.5228 60.9301 27.6558 55.2201C28.2928 52.0071 28.6998 48.5611 28.6998 47.6001H26.6998C26.6998 48.3671 26.3558 51.3181 25.8158 54.1961ZM26.2288 19.5711C24.5368 17.7391 21.7408 14.5191 20.6288 12.1141C20.8828 12.0161 21.1678 11.9401 21.3838 11.9001H22.9308C23.4498 14.2281 25.1098 17.5191 26.2288 19.5711ZM26.2998 9.90013H24.6998V7.80013H26.2998V9.90013ZM10.7498 11.6501H7.60581L7.5368 11.5181C8.1988 10.4241 9.63181 8.52813 11.2158 8.17613C13.4038 7.69013 15.1878 7.76013 15.9508 7.79013C16.0948 7.79613 16.2088 7.80013 16.2998 7.80013H22.6998V9.90013H21.2238L21.1478 9.91213C20.8768 9.95413 19.4838 10.2021 18.6928 10.9931C17.3808 12.3051 16.6808 13.5511 16.6068 14.7001H14.1778C13.9568 12.7071 12.1078 11.6501 10.7498 11.6501ZM12.6998 16.7001H17.8998V19.0001H12.6998V16.7001Z"/>
<path d="M38.885 0.676758L30.185 5.07648L30.8168 6.32584L39.5168 1.92612L38.885 0.676758Z"/>
<path d="M42.0998 8.10013H30.7998V9.50013H42.0998V8.10013Z"/>
<path d="M31.1215 11.2767L30.4779 12.52L38.9779 16.9198L39.6215 15.6765L31.1215 11.2767Z"/>
<path d="M32.2738 35.4231C32.2838 35.2581 32.2908 35.0921 32.2908 34.9251H32.2528C32.2528 34.9191 32.2528 34.9141 32.2528 34.9081H30.8528C30.8528 35.0811 30.8598 35.2531 30.8708 35.4231C30.6188 38.8831 27.7678 41.6311 24.2668 41.7201C24.2238 41.7191 24.1818 41.7171 24.1388 41.7171V41.7241C24.1228 41.7241 24.1078 41.7251 24.0918 41.7251V43.1251C24.1508 43.1251 24.2088 43.1221 24.2678 43.1211C27.7858 43.1871 30.6568 45.9351 30.9178 49.4031C30.9078 49.5681 30.9008 49.7341 30.9008 49.9011H30.9388C30.9388 49.9071 30.9388 49.9121 30.9388 49.9181H32.3388C32.3388 49.7451 32.3318 49.5731 32.3208 49.4031C32.5728 45.9431 35.4238 43.1951 38.9248 43.1061C38.9678 43.1071 39.0098 43.1091 39.0528 43.1091V43.1021C39.0688 43.1021 39.0838 43.1011 39.0998 43.1011V41.7011C39.0408 41.7011 38.9828 41.7041 38.9238 41.7051C35.4068 41.6391 32.5358 38.8901 32.2738 35.4231ZM31.6148 46.5571C30.7818 44.7111 29.2868 43.2271 27.4318 42.4101C29.2698 41.5861 30.7508 40.1061 31.5748 38.2681C32.4078 40.1141 33.9028 41.5981 35.7578 42.4151C33.9198 43.2381 32.4388 44.7191 31.6148 46.5571Z"/>
<path d="M45.1288 29.3671C45.1368 29.2361 45.1418 29.1041 45.1418 28.9711H45.1118C45.1118 28.9671 45.1118 28.9621 45.1118 28.9581H43.7118C43.7118 29.0951 43.7178 29.2321 43.7258 29.3671C43.5258 32.0321 41.3288 34.1481 38.6298 34.2191C38.5958 34.2181 38.5628 34.2161 38.5278 34.2161V34.2211C38.5148 34.2211 38.5028 34.2221 38.4908 34.2221V35.6221C38.5378 35.6221 38.5838 35.6191 38.6298 35.6181C41.3408 35.6701 43.5548 37.7861 43.7618 40.4571C43.7538 40.5881 43.7488 40.7201 43.7488 40.8531H43.7788C43.7788 40.8571 43.7788 40.8621 43.7788 40.8661H45.1788C45.1788 40.7291 45.1728 40.5921 45.1648 40.4571C45.3648 37.7921 47.5618 35.6761 50.2608 35.6051C50.2948 35.6061 50.3278 35.6081 50.3628 35.6081V35.6031C50.3758 35.6031 50.3878 35.6021 50.3998 35.6021V34.2021C50.3528 34.2021 50.3068 34.2051 50.2608 34.2061C47.5498 34.1541 45.3358 32.0381 45.1288 29.3671ZM44.4608 37.8661C43.8118 36.5891 42.7638 35.5481 41.4808 34.9101C42.7508 34.2681 43.7888 33.2301 44.4308 31.9601C45.0798 33.2371 46.1278 34.2781 47.4108 34.9161C46.1398 35.5571 45.1028 36.5951 44.4608 37.8661Z"/>
<path d="M40.3888 27.0071C40.4158 27.0071 40.4428 27.0091 40.4698 27.0091V27.0051C40.4798 27.0051 40.4898 27.0041 40.4998 27.0041V25.6041C40.4628 25.6041 40.4258 25.6061 40.3888 25.6071C38.3018 25.5661 36.5978 23.9391 36.4328 21.8841C36.4388 21.7791 36.4428 21.6741 36.4428 21.5681H36.4188C36.4188 21.5641 36.4188 21.5611 36.4188 21.5571H35.0188C35.0188 21.6671 35.0228 21.7751 35.0298 21.8831C34.8708 23.9331 33.1798 25.5601 31.1028 25.6161C31.0758 25.6161 31.0488 25.6141 31.0218 25.6141V25.6181C31.0118 25.6181 31.0018 25.6191 30.9918 25.6191V27.0191C31.0288 27.0191 31.0658 27.0171 31.1028 27.0161C33.1898 27.0571 34.8938 28.6841 35.0588 30.7391C35.0528 30.8441 35.0488 30.9491 35.0488 31.0551H35.0728C35.0728 31.0591 35.0728 31.0621 35.0728 31.0661H36.4728C36.4728 30.9561 36.4688 30.8481 36.4618 30.7401C36.6208 28.6901 38.3118 27.0641 40.3888 27.0071ZM35.7568 28.3731C35.2648 27.5111 34.5438 26.7951 33.6768 26.3091C34.5338 25.8211 35.2458 25.1091 35.7328 24.2521C36.2248 25.1141 36.9458 25.8301 37.8128 26.3161C36.9558 26.8031 36.2438 27.5161 35.7568 28.3731Z"/>
</svg>

