<svg viewBox="0 0 76 41" fill="none" xmlns="http://www.w3.org/2000/svg">
<path d="M10.7909 38.5998H10.0999V35.1998H8.0999V40.5998H12.2089L13.8439 35.9298L11.9559 35.2698L10.7909 38.5998Z"/>
<path d="M7.2409 16.1788C5.5629 16.1788 4.1989 17.3548 4.1989 18.7998C4.1989 20.2448 5.5639 21.4208 7.2409 21.4208V20.1098C6.2859 20.1098 5.5089 19.5218 5.5089 18.7988C5.5089 18.0758 6.2859 17.4878 7.2409 17.4878C7.9479 17.4878 8.5979 17.8268 8.8579 18.3328L10.0239 17.7338C9.5379 16.7898 8.4459 16.1788 7.2409 16.1788Z"/>
<path d="M72.2509 14.0078C70.6189 13.1248 68.8919 13.0998 68.6999 13.0998C64.5669 13.0998 62.0999 15.0808 62.0999 18.3998V26.4998H13.8999V18.3998C13.8999 15.0808 11.4329 13.0998 7.2999 13.0998C7.1079 13.0998 5.3809 13.1248 3.7489 14.0078C1.8849 15.0158 0.899902 16.7078 0.899902 18.8998C0.899902 21.6318 2.4789 22.9948 3.8029 23.6568C4.4499 23.9798 5.0959 24.1638 5.5999 24.2668V31.3998C5.5999 32.8928 6.6819 34.3998 9.0999 34.3998H66.8999C69.3179 34.3998 70.3999 32.8928 70.3999 31.3998V24.2668C70.9039 24.1628 71.5499 23.9798 72.1969 23.6568C73.5209 22.9948 75.0999 21.6318 75.0999 18.8998C75.0999 16.7078 74.1149 15.0158 72.2509 14.0078ZM71.3519 21.8428C70.3809 22.3438 69.3639 22.3998 69.3579 22.4008L68.4009 22.4418V31.3998C68.4009 31.8558 68.1409 32.3998 66.9009 32.3998H9.0999C7.8599 32.3998 7.5999 31.8558 7.5999 31.3998V22.4418L6.6429 22.4008C6.6329 22.4008 5.6549 22.3468 4.6979 21.8678C3.4879 21.2628 2.8999 20.2928 2.8999 18.8998C2.8999 17.4468 3.4889 16.4218 4.7009 15.7668C5.9199 15.1078 7.2439 15.0998 7.2999 15.0998C8.2349 15.0998 9.5589 15.2268 10.5579 15.8308C11.4609 16.3768 11.8999 17.2168 11.8999 18.3998V28.4998H64.0999V18.3998C64.0999 17.2168 64.5389 16.3768 65.4419 15.8308C66.4409 15.2268 67.7649 15.0998 68.6999 15.0998C68.7559 15.0998 70.0799 15.1078 71.2989 15.7668C72.5109 16.4218 73.0999 17.4468 73.0999 18.8998C73.0999 20.2738 72.5279 21.2358 71.3519 21.8428Z"/>
<path d="M65.8999 38.5998H65.2089L64.0439 35.2698L62.1559 35.9298L63.7909 40.5998H67.8999V35.1998H65.8999V38.5998Z"/>
<path d="M10.0999 7.3798C10.0269 3.7658 13.0829 2.9568 14.9409 2.7998H27.0999V21.6998H15.5999V23.0998H60.3999V21.6998H48.8999V2.7998H61.0589C62.9169 2.9568 65.9729 3.7658 65.8999 7.3798V11.8998H67.8999V7.4098C67.9359 5.4908 67.2879 3.8608 66.0249 2.69581C64.8579 1.61881 63.1819 0.964805 61.1799 0.802805L61.1399 0.799805H14.8999L14.8199 0.802805C12.8179 0.963805 11.1419 1.61881 9.9749 2.69581C8.7119 3.8608 8.0639 5.4908 8.0999 7.4098V11.8998H10.0999V7.3798ZM47.4999 21.6998H28.4999V2.7998H47.4999V21.6998Z"/>
<path d="M68.7619 16.2458C67.5879 16.2458 66.5239 16.8408 66.0509 17.7628L67.1869 18.3458C67.4399 17.8538 68.0729 17.5228 68.7619 17.5228C69.6919 17.5228 70.4489 18.0958 70.4489 18.7998C70.4489 19.5038 69.6919 20.0768 68.7619 20.0768V21.3538C70.3959 21.3538 71.7259 20.2078 71.7259 18.7998C71.7259 17.3918 70.3969 16.2458 68.7619 16.2458Z"/>
</svg>

