<svg viewBox="0 0 103 45" fill="none" xmlns="http://www.w3.org/2000/svg">
<path d="M14.4835 41.9525C8.59903 41.9525 3.81254 37.166 3.81254 31.2815C3.81254 25.397 8.59903 20.6105 14.4835 20.6105C15.067 20.6105 15.6535 20.6585 16.2235 20.7515L16.708 17.7905C15.9775 17.6705 15.229 17.6105 14.482 17.6105C6.94454 17.6105 0.811035 23.7425 0.811035 31.2815C0.811035 38.819 6.94304 44.9525 14.482 44.9525C20.743 44.9525 26.191 40.7195 27.7315 34.6595L24.8245 33.92C23.6245 38.6495 19.3705 41.9525 14.4835 41.9525Z"/>
<path d="M22.903 20.51L21.0535 22.8725C22.9045 24.3215 24.244 26.366 24.8215 28.628L27.7285 27.884C26.9875 24.9845 25.273 22.3655 22.903 20.51Z"/>
<path d="M92.2856 24.377C91.9301 24.377 91.5701 24.3965 91.2176 24.434L91.537 27.4175C91.7831 27.3905 92.035 27.377 92.284 27.377C96.0956 27.377 99.196 30.4775 99.196 34.289C99.196 38.1005 96.0956 41.201 92.284 41.201C88.4725 41.201 85.372 38.1005 85.372 34.289C85.372 32.5535 86.0186 30.893 87.1916 29.615L84.982 27.5855C83.299 29.4185 82.372 31.799 82.372 34.289C82.372 39.755 86.8181 44.201 92.284 44.201C97.7501 44.201 102.196 39.755 102.196 34.289C102.196 28.823 97.7501 24.377 92.2856 24.377Z"/>
<path d="M90.9431 34.961L93.6266 33.6185L86.1221 18.614L83.3216 18.6035L78.1466 29.7815H51.6221L46.03 2.57302L44.1295 0.791016H38.2135V3.79102H42.943L43.2835 4.11052L44.4385 9.73401H25.1845L24.253 7.65352H30.433V4.65352H18.5155V7.65352H21.283L21.0175 7.77202L22.447 10.964L12.4315 30.371L13.7635 32.783H80.0636L84.7691 22.619L90.9431 34.961ZM45.055 12.7325L48.559 29.7815H34.162L26.5285 12.7325H45.055ZM24.016 14.4635L30.874 29.7815H16.111L24.016 14.4635Z"/>
<path d="M76.5551 28.1015L82.372 16.3775L49.5205 10.4705L53.008 28.1015H76.5551ZM79.2476 17.9495L75.2531 26.0015H54.733L52.1785 13.082L79.2476 17.9495Z"/>
<path d="M7.88204 25.856C6.62954 27.3785 5.93804 29.306 5.93804 31.2815C5.93804 32.9945 6.44354 34.646 7.39754 36.0605L9.13754 34.8845C8.41754 33.8195 8.03804 32.573 8.03804 31.2815C8.03804 29.792 8.55854 28.3385 9.50354 27.191L7.88204 25.856Z"/>
</svg>

