<svg viewBox="0 0 33 32" fill="none" xmlns="http://www.w3.org/2000/svg">
<path d="M16.4013 0C16.9597 0.042953 17.5181 0.0572707 18.0765 0.1217C18.8783 0.214765 19.6586 0.379418 20.4317 0.608501C24.1615 1.71096 27.1252 3.86577 29.3015 7.08009C31.0411 9.65727 31.936 12.5136 32.0076 15.6277C32.0076 15.6993 32.0147 16.2935 32.0076 16.3508C31.9933 16.5942 32.0004 16.8376 31.9718 17.081C31.9074 17.6895 31.8572 18.3051 31.7499 18.9065C31.4492 20.5745 30.898 22.1494 30.0747 23.6313C28.2492 26.9387 25.5861 29.3298 22.0997 30.8045C21.9208 30.8832 21.7418 30.9477 21.5414 31.0192C21.5414 30.9477 21.5414 30.8975 21.5414 30.8474C21.5414 27.404 21.5414 23.9678 21.5414 20.5244C21.5414 20.3311 21.5414 20.3311 21.7418 20.3311C22.7011 20.3311 23.6532 20.3311 24.6125 20.3311C24.7342 20.3311 24.7771 20.2953 24.7771 20.1736C24.7771 20.0519 24.7986 19.9374 24.8058 19.8157C24.8487 19.4362 25.1351 16.8018 25.1709 16.4224C25.1852 16.2506 25.178 16.2506 25.0134 16.2506C23.961 16.2506 22.9087 16.2506 21.8635 16.2506C21.5414 16.2506 21.5414 16.2506 21.5414 15.9284C21.5485 15.1696 21.5485 14.4107 21.57 13.6447C21.5843 13.1866 21.8277 12.8859 22.2716 12.7642C22.4863 12.7069 22.7082 12.6711 22.923 12.6711C23.6246 12.6568 24.319 12.664 25.0205 12.6711C25.1279 12.6711 25.1709 12.6497 25.1709 12.528C25.1709 11.2608 25.1709 9.99374 25.1709 8.71946C25.1709 8.61924 25.1351 8.57629 25.0349 8.58344C23.8107 8.59776 22.5865 8.59776 21.3624 8.61208C20.7467 8.61924 20.1454 8.72662 19.5584 8.91275C18.327 9.30649 17.4751 10.1011 17.0313 11.3253C16.7664 12.0483 16.6662 12.8072 16.659 13.5732C16.6447 14.4179 16.6519 15.2555 16.659 16.1002C16.659 16.2219 16.6304 16.2577 16.5015 16.2577C15.8 16.2506 15.0912 16.2577 14.3897 16.2506C14.268 16.2506 14.225 16.2864 14.225 16.4081C14.225 17.6609 14.225 18.9208 14.225 20.1736C14.225 20.2953 14.2608 20.3383 14.3825 20.3383C15.0912 20.3311 15.8 20.3383 16.5087 20.3311C16.6161 20.3311 16.6519 20.3597 16.6519 20.4743C16.6519 24.2613 16.6519 28.0483 16.6519 31.8425C16.6519 31.9642 16.6161 31.9928 16.5015 31.9928C15.9789 31.9785 15.4492 31.9928 14.9266 31.957C14.3539 31.9141 13.7883 31.8568 13.2228 31.7638C11.7767 31.5204 10.395 31.0765 9.07782 30.4394C5.88498 28.8787 3.45097 26.5306 1.79012 23.3879C0.88811 21.6841 0.322562 19.8658 0.107797 17.9472C0.0505265 17.2743 0.000414654 16.5942 0.000414654 15.9141C-0.00674418 15.0407 0.0791619 14.1673 0.229497 13.3011C0.487216 11.8049 0.938222 10.3803 1.60399 9.01298C2.53464 7.10157 3.7946 5.44788 5.3767 4.03043C6.51496 3.01387 7.76775 2.18345 9.14225 1.53199C11.1897 0.572707 13.3373 0.0501119 15.5995 0C15.664 0 16.344 0 16.4013 0Z"/>
</svg>
