<svg viewBox="0 0 82 98" fill="none" xmlns="http://www.w3.org/2000/svg">
<path d="M58.6207 58.3627C58.6207 61.2427 58.6274 64 58.614 66.7539C58.6107 67.2748 58.574 67.8024 58.4772 68.3133C58.2303 69.6273 56.9989 70.7122 55.6407 70.7222C51.1925 70.7487 46.7442 70.7521 42.2926 70.7222C40.7208 70.7122 39.5095 69.395 39.5061 67.8057C39.4961 64.793 39.5028 61.7802 39.5028 58.7642C39.5028 58.4656 39.5028 58.1636 39.5028 57.7887C37.4238 58.0574 35.4283 58.3063 33.4361 58.5784C32.4149 58.7177 31.4572 58.7078 30.6062 57.9878C29.6952 57.218 29.3348 56.1961 29.5951 55.1243C29.9121 53.8137 30.7364 53.0639 32.0478 52.9046C35.1913 52.5264 38.3515 52.2808 41.475 51.7997C42.6697 51.6172 43.6674 51.6537 44.3549 52.6126C44.812 53.2497 45.2158 54.0825 45.2425 54.839C45.3426 57.8484 45.2826 60.8645 45.2826 63.8772C45.2826 64.2024 45.2826 64.5308 45.2826 64.919C47.8154 64.919 50.2681 64.919 52.8309 64.919C52.8309 64.5939 52.8309 64.2986 52.8309 64.0066C52.8309 61.0469 52.9244 58.0873 52.8042 55.1343C52.7008 52.5695 54.713 50.9968 57.1958 51.8329C58.921 52.4136 60.6229 53.0904 62.2848 53.8403C65.0812 55.0978 67.9244 55.1741 70.8176 54.338C71.3916 54.1721 71.9522 53.8569 72.426 53.4886C75.3026 51.2622 76.931 47.8779 76.02 44.2414C75.3727 41.6566 73.7942 39.7057 71.6285 38.2026C70.5173 37.4329 69.3727 36.7029 68.2748 35.9763C71.0645 32.6915 72.1791 28.9786 70.4338 24.8876C68.7553 20.9524 65.7653 18.5104 61.4939 18.2516C61.0434 16.503 60.7631 14.781 60.1491 13.185C59.1279 10.5472 57.2425 8.50998 54.7464 7.20269C52.2903 5.91199 49.5807 5.59347 46.8109 5.93854C43.4805 6.35329 41.0445 8.26445 38.9555 10.6833C35.4349 14.7577 33.0823 19.5191 31.0868 24.4496C27.693 32.8308 25.1902 41.5007 22.9344 50.2436C22.0301 53.7441 21.2659 57.2777 20.3982 60.7848C20.1279 61.8764 19.7609 62.9083 18.7564 63.6549C17.8321 64.3417 16.624 64.2787 15.6129 63.4923C14.4149 62.5633 13.3604 61.4484 12.2792 60.3834C9.37933 57.5233 6.49946 54.6432 3.61292 51.7732C3.04229 51.2058 2.49501 50.6185 1.90769 50.0711C0.736391 48.9828 0.672988 47.0782 1.83094 45.9037C2.8721 44.8486 4.72416 44.6661 5.86209 45.8074C8.83873 48.7903 11.8354 51.7533 14.8254 54.7229C15.0523 54.9485 15.2892 55.1642 15.643 55.496C16.0567 53.8834 16.4372 52.4235 16.8042 50.9636C19.2002 41.4012 21.8499 31.915 25.4806 22.7342C27.5161 17.5813 29.9355 12.6176 33.4527 8.25781C36.376 4.63457 39.8932 1.85078 44.4917 0.659625C51.059 -1.03918 56.7486 0.579993 61.6474 5.20526C63.8532 7.28896 65.0779 9.92676 66.119 12.674C66.3359 13.2447 66.6296 13.5434 67.1969 13.7789C70.5239 15.1725 73.1302 17.3856 74.8788 20.5775C77.1947 24.8079 77.6485 29.1976 76.1635 33.7764C75.9933 34.3007 76.1235 34.6059 76.5506 34.9643C80.762 38.4913 82.4972 42.9805 81.8765 48.432C81.0123 55.997 73.594 60.7948 67.5206 60.7848C65.505 60.7848 61.7008 60.2175 58.6207 58.3627Z" fill="#365B4E"/>
<path d="M31.7742 84.0107C31.7742 84.5482 31.7609 85.0459 31.7776 85.5403C31.8376 87.4382 31.901 89.3394 31.9778 91.2373C31.9945 91.662 31.9244 92.1 31.4539 92.0801C31.0768 92.0635 30.6329 91.8345 30.366 91.5592C30.1424 91.3302 30.1057 90.9022 30.0223 90.5538C29.7486 89.4157 29.1179 88.8517 27.9767 88.8251C26.782 88.7986 25.584 88.8318 24.3893 88.8119C23.9222 88.8052 23.7553 88.9744 23.7586 89.439C23.7753 91.3468 23.742 93.2546 23.792 95.1592C23.7987 95.4279 24.099 95.7995 24.356 95.9223C24.713 96.0915 25.1602 96.0782 25.5707 96.1247C26.2547 96.201 26.9489 96.2143 27.6229 96.347C27.8632 96.3935 28.2403 96.7253 28.2269 96.8945C28.2002 97.1865 27.9533 97.4983 27.7164 97.7107C27.5862 97.8268 27.2926 97.7737 27.069 97.7737C23.5951 97.7771 20.1179 97.7704 16.6441 97.7804C16.0768 97.7804 15.5161 97.7406 15.4995 97.0305C15.4828 96.3105 16.0467 96.1712 16.6374 96.1313C17.3282 96.0849 18.0323 96.1015 18.6963 95.9488C18.96 95.8891 19.327 95.4545 19.327 95.189C19.3638 90.3249 19.3504 85.4574 19.3571 80.5932C19.3571 79.8267 18.8499 79.5978 18.2325 79.5314C17.7086 79.475 17.178 79.5149 16.6507 79.5115C16.0567 79.5082 15.4728 79.422 15.4961 78.6588C15.5161 77.9455 16.0868 77.8725 16.6407 77.8824C18.9433 77.9289 21.2492 78.0384 23.5517 78.0317C27.1357 78.0218 30.7164 77.9388 34.297 77.8725C35.0912 77.8559 35.6285 78.0019 35.8754 78.9276C36.1291 79.8699 36.683 80.7292 37.0467 81.6516C37.1569 81.9304 37.1669 82.5044 37.0434 82.5608C36.723 82.7068 36.2125 82.7963 35.9455 82.6338C35.0545 82.0896 34.2036 81.4725 33.406 80.7989C32.4116 79.9628 31.3404 79.4684 30.0089 79.5016C28.4806 79.5414 26.9522 79.5049 25.4205 79.5115C23.9856 79.5182 23.762 79.7438 23.762 81.1307C23.762 82.8992 23.7787 84.6677 23.752 86.4395C23.742 87.0002 23.8955 87.2458 24.4995 87.2059C25.6874 87.1263 26.8854 87.1595 28.0634 87.0235C29.0812 86.9073 29.812 86.3599 29.8821 85.2218C29.8855 85.1687 29.9155 85.1156 29.9288 85.0625C30.2058 83.7254 30.3593 83.6292 31.7742 84.0107Z" fill="#365B4E"/>
<path d="M48.693 97.9993C46.5606 97.777 44.4883 97.6045 42.4294 97.3324C41.4616 97.203 40.6774 96.8248 40.554 95.6004C40.4572 94.6283 40.0668 93.686 39.7864 92.737C39.6196 92.173 39.7397 91.662 40.3137 91.5459C40.7976 91.4497 41.4316 91.1709 41.752 92.0104C42.4627 93.8685 43.6841 95.3682 45.6496 95.9256C47.792 96.5328 49.9778 96.5726 52.0234 95.4213C53.6018 94.5321 53.8154 92.8664 52.604 91.5392C51.5161 90.3481 50.1747 89.5385 48.7831 88.8019C47.168 87.9492 45.4694 87.2491 43.8977 86.33C42.9099 85.7527 41.9755 84.9929 41.218 84.1368C39.8532 82.5906 40.4305 80.3178 42.4327 79.2859C45.2692 77.8227 48.3026 77.3914 51.4661 77.836C52.5606 77.9886 53.6585 78.1114 54.7564 78.2374C55.8009 78.3569 56.2247 78.7916 56.2848 79.8301C56.3282 80.5733 56.3482 81.3232 56.4516 82.0564C56.5584 82.8096 56.1012 83.0651 55.5239 83.1514C55 83.2277 54.4928 83.3206 54.2959 82.4845C53.8254 80.4937 52.1802 79.4916 50.2781 79.3556C48.8832 79.2527 47.515 79.4087 46.247 80.0856C44.9388 80.7823 44.6886 82.3252 45.8732 83.2078C46.9044 83.9776 48.069 84.5715 49.2036 85.2019C51.2325 86.33 53.3181 87.3619 55.3037 88.5597C56.0612 89.0176 56.7019 89.7475 57.2458 90.4675C58.3571 91.9341 58.317 93.6661 57.0223 94.9866C56.2514 95.773 55.247 96.3868 54.2492 96.8845C53.475 97.2727 52.5573 97.4087 51.6897 97.5746C50.6785 97.7638 49.6574 97.8666 48.693 97.9993Z" fill="#365B4E"/>
<path d="M79.0601 82.9092C79.0601 81.0378 77.9956 79.996 76.2336 79.5845C75.6163 79.4419 74.9755 79.3556 74.3415 79.3324C72.6062 79.2693 70.8977 79.4618 69.3092 80.2183C65.792 81.8905 64.5773 84.4056 64.9144 87.9824C65.0445 89.3693 65.5451 90.7894 66.1691 92.0469C67.4472 94.615 69.8799 95.5806 72.5529 95.9854C74.8187 96.3304 77.0345 95.9455 79.1435 95.1061C80.4583 94.5852 80.4283 94.7743 81.2292 95.9124C79.9844 96.4067 78.8098 97.0803 77.5517 97.3192C75.6596 97.6808 73.6908 97.9894 71.782 97.87C68.1046 97.6377 64.6674 96.5992 62.2147 93.5665C59.3115 89.9765 59.7286 84.6611 63.1557 81.5654C65.812 79.1665 69.0189 78.0915 72.5362 77.7397C74.9322 77.5009 77.2948 77.7597 79.6608 78.055C80.3115 78.1346 80.7253 78.4266 80.6786 79.1897C80.6285 80.0159 80.6685 80.8487 80.6685 81.6782C80.6619 82.9822 80.5017 83.1116 79.0601 82.9092Z" fill="#365B4E"/>
</svg>
