<svg viewBox="0 0 28 28" fill="none" xmlns="http://www.w3.org/2000/svg">
<path d="M13.1085 27.7142L12.7656 27.2114C10.9256 24.5028 8.95993 22.2285 7.05136 20.0285C3.4285 15.8342 0.291359 12.2114 0.285645 7.71993C0.285645 3.62279 3.57136 0.291359 7.61136 0.291359C10.3771 0.291359 12.7942 1.85707 14.0399 4.15422C15.2799 1.85136 17.6971 0.285645 20.4628 0.285645C24.5028 0.285645 27.7885 3.61707 27.7885 7.71421C27.7828 12.2114 24.6456 15.8285 21.0171 20.0228C19.1142 22.2228 17.1428 24.4971 15.3028 27.2056L14.9656 27.7028L13.1085 27.7142ZM7.61136 2.57707C4.83421 2.57707 2.57136 4.88564 2.57136 7.71993C2.57707 11.3599 5.31421 14.5256 8.78279 18.5314C10.4399 20.4456 12.2914 22.5885 14.0342 25.0285C15.7714 22.5828 17.6285 20.4399 19.2856 18.5256C22.7542 14.5256 25.4971 11.3599 25.5028 7.71421C25.5028 4.87993 23.2399 2.57136 20.4628 2.57136C17.6856 2.57136 14.9656 5.43993 14.9656 8.27421L13.1085 8.28564C13.1085 5.45136 10.3885 2.57707 7.61136 2.57707Z"/>
<path d="M23.7142 7.71421H22.5714C22.5714 6.45136 21.5485 5.4285 20.2856 5.4285V4.28564C22.1771 4.28564 23.7142 5.82279 23.7142 7.71421Z"/>
<path d="M11.1428 7.71421H9.99993C9.99993 6.45136 8.97707 5.4285 7.71421 5.4285V4.28564C9.60564 4.28564 11.1428 5.82279 11.1428 7.71421Z"/>
</svg>


