<svg viewBox="0 0 33 32" fill="none" xmlns="http://www.w3.org/2000/svg">
<path d="M10.7305 0C14.2461 0 17.7557 0 21.2714 0C21.3431 0.0119579 21.4149 0.0358738 21.4866 0.0418528C22.2998 0.0956634 23.1129 0.107621 23.9201 0.203285C25.4148 0.370696 26.8378 0.80716 28.0934 1.66215C30.5806 3.3542 31.6449 5.81155 31.8721 8.71733C31.9259 9.38698 31.9618 10.0626 32.0036 10.7382C32.0036 14.2539 32.0036 17.7635 32.0036 21.2791C31.9917 21.3808 31.9677 21.4824 31.9618 21.59C31.8661 22.6423 31.8661 23.7066 31.6688 24.741C31.0111 28.143 29.044 30.421 25.6958 31.4553C24.2011 31.9157 22.6585 31.9755 21.1219 31.9875C17.5704 32.0174 14.0129 31.9875 10.4614 31.9635C9.20583 31.9576 7.95025 31.8798 6.72456 31.563C3.70518 30.7797 1.6544 28.9442 0.649929 25.9666C0.105844 24.3523 0.063991 22.6663 0.0340961 20.9921C-0.00775661 18.5408 -0.00775661 16.0834 0.0161592 13.632C0.0400751 11.7965 0.0819279 9.95498 0.213465 8.12541C0.321086 6.61274 0.805383 5.18974 1.66635 3.9222C3.3584 1.44093 5.81576 0.376675 8.72153 0.149474C9.3852 0.0777266 10.0608 0.0418528 10.7305 0ZM29.062 16.0176C29.0679 16.0176 29.0799 16.0176 29.0859 16.0176C29.0859 14.6664 29.1218 13.3092 29.0739 11.9579C29.0321 10.6067 29.0141 9.24348 28.8049 7.91615C28.4461 5.59631 27.1308 4.02384 24.8289 3.34822C23.4716 2.94763 22.0726 2.94763 20.6795 2.92969C17.7797 2.89382 14.8799 2.88784 11.986 2.92371C10.6348 2.94763 9.25964 2.98948 7.92035 3.19277C5.60051 3.55151 4.02804 4.86688 3.35242 7.16878C2.95183 8.526 2.95183 9.92508 2.93389 11.3182C2.89802 14.218 2.89204 17.1178 2.92791 20.0116C2.94585 21.3688 2.9877 22.744 3.19099 24.0833C3.54973 26.4031 4.8651 27.9756 7.167 28.6512C8.52423 29.0518 9.9233 29.0518 11.3164 29.0697C14.2162 29.1056 17.116 29.1116 20.0098 29.0757C21.367 29.0578 22.7422 29.0159 24.0815 28.8126C26.4013 28.4539 27.9738 27.1385 28.6494 24.8366C29.0022 23.6348 29.0261 22.3972 29.05 21.1655C29.0859 19.4496 29.062 17.7336 29.062 16.0176Z"/>
<path d="M16.0039 24.2387C11.4778 24.2387 7.7649 20.5377 7.7649 16.0176C7.7649 11.4677 11.4659 7.7607 16.0039 7.7607C20.5479 7.7607 24.2489 11.4677 24.2429 16.0117C24.2369 20.5377 20.53 24.2387 16.0039 24.2387ZM10.6886 15.9818C10.6886 18.9115 13.0563 21.309 15.9621 21.315C18.9216 21.321 21.3132 18.9533 21.3192 16.0356C21.3192 13.082 18.9575 10.6904 16.0338 10.6844C13.0802 10.6844 10.6886 13.0521 10.6886 15.9818Z"/>
<path d="M26.4731 7.46175C26.4731 8.53198 25.6181 9.39295 24.5478 9.39893C23.4597 9.40491 22.5987 8.54394 22.6047 7.44979C22.6107 6.38553 23.4716 5.53054 24.5419 5.53054C25.6181 5.53054 26.4731 6.39151 26.4731 7.46175Z"/>
</svg>
