<svg width="32px" height="32px" viewBox="0 0 32 32" fill="#2D2D2D" xmlns="http://www.w3.org/2000/svg">
<path d="M7.552 30.688C12.8 28.896 16.928 27.104 16.928 23.68C16.928 21.44 15.104 19.776 12.416 19.776H6.496C5.376 19.776 4.672 19.52 4.672 18.656L5.28 17.76C5.888 17.984 6.72 18.048 7.424 18.048C12.032 16.8 14.752 15.584 14.816 12.128C14.816 11.744 14.752 11.36 14.656 10.976L14.944 10.688H17.888V6.848H15.52L14.24 9.92C13.184 8.16 11.808 6.848 8.224 6.848C3.648 7.968 0.8 9.184 0.768 12.48C0.768 14.56 2.016 16.384 4.096 17.344L0.576 19.296V20.256C0.576 21.984 1.76 23.552 3.968 24L0 26.112V26.944C0 29.792 3.68 30.688 7.552 30.688ZM7.968 16.16C6.592 16.16 5.696 14.784 5.696 12.032C5.696 10.24 6.272 8.768 7.584 8.768C8.928 8.768 9.824 10.176 9.824 12.896C9.824 14.72 9.28 16.16 7.968 16.16ZM8.64 27.968C5.536 27.968 4.768 26.752 4.768 25.536C4.768 25.024 5.056 24.416 5.536 24.096H10.368C11.68 24.096 12.288 24.864 12.288 25.792C12.288 26.688 11.392 27.968 8.64 27.968Z"/>
</svg>