<svg viewBox="0 0 90 31" fill="none" xmlns="http://www.w3.org/2000/svg">
<path d="M7.552 30.688C12.8 28.896 16.928 27.104 16.928 23.68C16.928 21.44 15.104 19.776 12.416 19.776H6.496C5.376 19.776 4.672 19.52 4.672 18.656L5.28 17.76C5.888 17.984 6.72 18.048 7.424 18.048C12.032 16.8 14.752 15.584 14.816 12.128C14.816 11.744 14.752 11.36 14.656 10.976L14.944 10.688H17.888V6.848H15.52L14.24 9.92C13.184 8.16 11.808 6.848 8.224 6.848C3.648 7.968 0.8 9.184 0.768 12.48C0.768 14.56 2.016 16.384 4.096 17.344L0.576 19.296V20.256C0.576 21.984 1.76 23.552 3.968 24L0 26.112V26.944C0 29.792 3.68 30.688 7.552 30.688ZM7.968 16.16C6.592 16.16 5.696 14.784 5.696 12.032C5.696 10.24 6.272 8.768 7.584 8.768C8.928 8.768 9.824 10.176 9.824 12.896C9.824 14.72 9.28 16.16 7.968 16.16ZM8.64 27.968C5.536 27.968 4.768 26.752 4.768 25.536C4.768 25.024 5.056 24.416 5.536 24.096H10.368C11.68 24.096 12.288 24.864 12.288 25.792C12.288 26.688 11.392 27.968 8.64 27.968Z"/>
<path d="M25.5072 23.328L29.8593 20.384L30.8193 23.328L36.8032 22.368L36.6753 20.608H35.5233C35.2033 20.128 35.0433 19.616 35.0433 18.464V7.2L32.2593 7.328L27.9713 8.352L28.1313 10.112L29.6033 9.984V18.432L29.0913 18.784C28.4832 19.2 27.9393 19.456 27.4592 19.456C26.2113 19.456 25.7633 18.816 25.7633 17.6V7.2L22.9792 7.328L18.5312 8.352L18.6912 10.112L20.1632 9.984V18.592C20.1632 22.4 21.7952 23.328 25.5072 23.328Z"/>
<path d="M44.9135 23.328L49.2655 20.384L50.2255 23.328L56.2095 22.368L56.0815 20.608H54.9295C54.6095 20.128 54.4495 19.616 54.4495 18.464V7.2L51.6655 7.328L47.3775 8.352L47.5375 10.112L49.0095 9.984V18.432L48.4975 18.784C47.8895 19.2 47.3455 19.456 46.8655 19.456C45.6175 19.456 45.1695 18.816 45.1695 17.6V7.2L42.3855 7.328L37.9375 8.352L38.0975 10.112L39.5695 9.984V18.592C39.5695 22.4 41.2015 23.328 44.9135 23.328Z"/>
<path d="M64.6718 23.328L68.3838 20.48L69.4078 23.328L75.3918 22.368L75.2637 20.608H74.1117C73.7917 20.128 73.6318 19.904 73.6318 18.592V0L70.9118 0.128L66.4317 1.12L66.5918 2.88L68.1917 2.816V7.68C67.6797 7.328 66.0477 6.848 65.3757 6.848C60.9597 7.84 57.8237 10.304 57.8237 15.648C57.8237 20.192 60.4798 23.328 64.6718 23.328ZM66.0798 19.424C64.6718 19.424 63.5838 17.792 63.5838 14.784C63.5838 11.392 64.6077 9.408 66.3678 9.408C67.1678 9.408 67.8398 9.824 68.1917 10.24V18.528L67.7118 18.88C67.3598 19.136 66.8477 19.424 66.0798 19.424Z"/>
<path d="M82.8717 23.328C87.5758 22.336 89.8477 21.12 89.8477 17.984C89.8477 15.872 88.5997 14.528 86.8077 13.696L84.5038 12.608C82.4558 11.648 82.0397 11.2 82.0397 10.368C82.0397 9.664 82.7118 8.992 84.1198 8.992C85.2718 8.992 86.0078 9.632 86.5198 10.304L87.2878 12.448H89.2398V7.808C88.6318 7.52 87.4478 6.848 84.1198 6.848C78.4877 8.256 77.3037 9.824 77.3037 12.192C77.3037 14.272 78.6478 15.488 80.7598 16.544L83.0318 17.696C84.4718 18.4 84.7917 18.88 84.7917 19.68C84.7917 20.704 84.0238 21.056 82.9037 21.056C81.8797 21.056 80.6957 20.32 79.8637 19.36L79.1598 17.056H76.9837L77.5918 22.208C79.4798 22.944 81.7197 23.328 82.8717 23.328Z"/>
<path d="M18.52 25.848H89.52V27.848H18.52V25.848Z"/>
</svg>
