<svg width="32" height="48" viewBox="0 0 32 48" fill="none" xmlns="http://www.w3.org/2000/svg">
<path d="M15.9179 48.0004H14.6834L14.0861 46.8699C11.2788 41.2376 8.67059 37.0558 6.58003 33.6944C2.98626 27.932 0.397955 23.7703 0.0296189 17.5477C-0.497998 8.57395 6.33116 0.55061 14.9423 0.0303933C19.4021 -0.229715 23.6131 1.30092 26.8385 4.35219C30.0241 7.36345 31.8459 11.6152 31.8459 16.0071C31.8459 22.99 29.2178 27.2317 25.2358 33.6644C23.1452 37.0458 20.5469 41.2476 17.7396 46.8699L17.1921 47.9704L15.9179 48.0004ZM15.9278 4.00205C15.6789 4.00205 15.4301 4.01205 15.1812 4.02206C8.72036 4.41222 3.61343 10.5048 4.01163 17.3176C4.32024 22.5198 6.44066 25.9312 9.96474 31.5735C11.6671 34.3047 13.6979 37.566 15.9179 41.7078C18.1279 37.566 20.1587 34.2847 21.861 31.5435C25.6041 25.491 27.8639 21.8395 27.8639 15.997C27.8639 12.6557 26.5299 9.54436 24.1009 7.2534C21.871 5.14252 18.984 4.00205 15.9278 4.00205Z" fill="#00788C"/>
<path d="M15.9278 24.9908C10.9901 24.9908 6.97823 20.9591 6.97823 15.997H8.96924C8.96924 19.8587 12.0951 22.99 15.9278 22.99C19.7605 22.99 22.8864 19.8487 22.8864 15.997C22.8864 12.1454 19.7705 9.00413 15.9278 9.00413V7.0033C20.8655 7.0033 24.8774 11.035 24.8774 15.997C24.8774 20.9591 20.8655 24.9908 15.9278 24.9908Z" fill="#00788C"/>
</svg>

