<svg viewBox="0 0 28 28" fill="none" xmlns="http://www.w3.org/2000/svg">
<path d="M13.9999 13.9999C10.2171 13.9999 7.14279 10.9256 7.14279 7.14279C7.14279 3.35993 10.2171 0.285645 13.9999 0.285645C17.7828 0.285645 20.8571 3.35993 20.8571 7.14279C20.8571 10.9256 17.7828 13.9999 13.9999 13.9999ZM13.9999 2.57136C11.4799 2.57136 9.4285 4.62279 9.4285 7.14279C9.4285 9.66279 11.4799 11.7142 13.9999 11.7142C16.5199 11.7142 18.5714 9.66279 18.5714 7.14279C18.5714 4.62279 16.5199 2.57136 13.9999 2.57136Z"/>
<path d="M27.7142 27.7142H25.4285V26.7314L23.3714 19.5371L13.9999 17.4571L4.6285 19.5371L2.57136 26.7314V27.7142H0.285645V26.4114L2.79993 17.6056L13.9999 15.1142L25.1999 17.6056L27.7142 26.4114V27.7142Z"/>
<path d="M10.5714 6.57135V5.4285C12.6571 5.4285 15.9371 3.26278 15.9714 3.23993L16.6056 4.1885C16.4571 4.28564 12.9999 6.57135 10.5714 6.57135Z"/>
</svg>
