<svg viewBox="0 0 41 57" fill="#2D2D2D" xmlns="http://www.w3.org/2000/svg">
<path d="M36.8569 9.9239C35.1619 13.8799 34.7859 16.2219 35.6399 17.5169C35.9359 17.9649 36.5329 18.4999 37.6999 18.4999C38.9679 18.4999 39.6139 17.9319 39.9319 17.4549C40.7829 16.1809 40.5019 13.9499 39.0469 10.4319L38.9539 10.2059L37.1629 9.2109L36.8569 9.9239ZM37.8449 11.1929C39.3489 14.9049 39.0729 16.2219 38.7679 16.6769C38.6979 16.7819 38.4849 17.0999 37.6999 17.0999C37.1099 17.0999 36.9089 16.8979 36.8089 16.7459C36.4569 16.2129 36.3729 14.8119 37.8439 11.1919L37.8449 11.1929Z"/>
<path d="M6.06892 56.3999H27.5319C29.0719 56.3999 30.5349 55.7329 31.5439 54.5699C32.5539 53.4069 33.0079 51.8649 32.7919 50.3399L29.3569 26.1569C29.0829 24.2269 28.1209 22.4599 26.6479 21.1819C25.3929 20.0929 23.8389 19.4229 22.1999 19.2479V15.7479C22.1999 13.8469 20.6539 12.3009 18.7529 12.3009H17.7999V7.2009H20.0999V2.4009H28.3569L37.2409 6.9889L38.1589 5.2119L28.8429 0.399902H7.69992V2.3999H13.4999V7.1999H15.7999V12.2999H14.8469C12.9459 12.2999 11.3999 13.8459 11.3999 15.7469V19.2469C9.76092 19.4219 8.20692 20.0919 6.95192 21.1809C5.47992 22.4589 4.51792 24.2259 4.24292 26.1559L0.808917 50.3399C0.591917 51.8649 1.04692 53.4069 2.05692 54.5699C3.06592 55.7329 4.52892 56.3999 6.06892 56.3999ZM15.4999 2.3999H18.0999V5.1999H15.4999V2.3999ZM13.3999 15.7469C13.3999 14.9489 14.0489 14.2999 14.8469 14.2999H18.7519C19.5499 14.2999 20.1989 14.9489 20.1989 15.7469V19.1999H13.3989V15.7469H13.3999ZM2.78892 50.6209L6.22392 26.4379C6.64792 23.4509 9.24292 21.1989 12.2589 21.1989H21.3399C24.3569 21.1989 26.9509 23.4509 27.3749 26.4379L30.8099 50.6209C30.9449 51.5719 30.6609 52.5329 30.0319 53.2579C29.4019 53.9829 28.4909 54.3989 27.5299 54.3989H6.06892C5.10892 54.3989 4.19692 53.9829 3.56692 53.2579C2.93692 52.5329 2.65392 51.5719 2.78892 50.6209Z"/>
<path d="M27.7999 50.0999H6.09992V51.4999H27.7999V50.0999Z"/>
<path d="M13.3659 25.1999H20.5349C22.3889 25.1999 23.9839 26.5839 24.2449 28.4199L25.6309 28.2229C25.2729 25.7009 23.0819 23.7999 20.5349 23.7999H13.3659C10.8189 23.7999 8.62792 25.7019 8.26992 28.2229L9.65592 28.4199C9.91592 26.5839 11.5109 25.1999 13.3659 25.1999Z"/>
</svg>

