<svg viewBox="0 0 91 82" fill="none" xmlns="http://www.w3.org/2000/svg">
<path d="M88.9772 63.9269C88.9338 63.8933 84.5798 60.5193 75.8746 53.7237C70.2354 49.3221 71.291 38.9425 72.4068 27.9539C72.8842 23.2583 73.377 18.4017 73.377 13.7635H73.3518C73.3672 13.5787 73.377 13.3939 73.377 13.2077C73.377 9.66006 70.5014 6.42046 65.2794 4.08806C60.4158 1.91526 53.9814 0.718262 47.1606 0.718262C40.3398 0.718262 33.904 1.91526 29.0418 4.08806C23.8198 6.42186 20.9442 9.66006 20.9442 13.2077C20.9442 13.3939 20.954 13.5801 20.9694 13.7635H20.9442C20.9442 14.0799 20.9064 45.4385 17.7046 53.9253C15.774 59.0451 5.35521 66.1725 1.50381 68.4881L0.0114136 69.3855L2.62381 72.1491L28.6862 68.6253C27.205 71.5513 25.5894 73.9075 24.1726 75.3243C23.9304 75.5665 23.3116 76.2203 23.2864 76.2483L22.3288 77.2605L24.7438 79.5649L25.6076 79.1659C25.889 79.0357 32.5628 75.9501 36.5962 73.6653C44.3606 69.2651 50.2392 67.8805 52.3196 69.9623C55.639 73.2817 70.7968 80.4315 72.5132 81.2351L73.559 81.7251L75.26 79.3843L74.4494 78.5387C74.4396 78.5289 73.4624 77.4985 72.2542 75.4335C71.1398 73.5295 69.5956 70.3291 68.568 65.8995C68.3972 65.1659 68.2418 64.4883 68.099 63.8625C73.5786 65.0595 85.3764 66.7913 86.95 67.0195L87.4554 67.0937L90.5704 65.1617L88.9772 63.9269ZM30.1856 6.64306C34.6964 4.62706 40.7262 3.51686 47.162 3.51686C53.5978 3.51686 59.6276 4.62706 64.1384 6.64306C68.2306 8.47146 70.5784 10.8641 70.5784 13.2063C70.5784 15.5485 68.2306 17.9411 64.1384 19.7695C59.6276 21.7855 53.5978 22.8957 47.162 22.8957C40.7262 22.8957 34.6964 21.7855 30.1856 19.7695C26.0934 17.9411 23.7456 15.5485 23.7456 13.2063C23.7456 10.8641 26.092 8.47286 30.1856 6.64306ZM67.4172 60.8343C66.6528 57.3637 66.5534 56.5909 66.545 56.4243L63.7786 56.8821C63.8192 57.2069 63.9032 57.6899 64.0334 58.3605C64.3582 60.0167 64.9658 62.7663 65.8394 66.5337C66.9048 71.1215 68.4812 74.5333 69.8266 76.8363C64.2686 74.1063 56.2718 69.9539 54.3006 67.9827C54.281 67.9631 54.26 67.9435 54.239 67.9239L53.637 55.8363L51.6798 55.9343L52.2146 66.6625C50.4674 66.0199 48.2078 66.0549 45.4582 66.7703C42.5476 67.5277 39.1022 69.0285 35.2172 71.2293C33.2012 72.3717 30.4362 73.7521 28.2102 74.8315C31.9804 69.5885 36.2322 59.9243 36.2322 50.1019H33.4322C33.4322 55.4835 31.9972 61.0009 30.0736 65.6125L6.11401 68.8521C10.5898 65.8323 18.4088 59.9957 20.3268 54.9151C22.914 48.0565 23.544 28.3585 23.6966 18.9057C25.028 20.1797 26.8228 21.3361 29.0432 22.3287C33.9068 24.5015 40.3412 25.6985 47.162 25.6985C47.9418 25.6985 48.716 25.6817 49.4832 25.6509V37.0525H51.4432V25.5375C54.414 25.3135 57.256 24.8571 59.86 24.1865L59.8054 31.1515L61.7654 31.1669L61.8256 23.6265C62.6362 23.3717 63.4188 23.0945 64.1692 22.7949L64.1062 35.6875L66.0662 35.6973L66.1334 21.9269C67.84 21.0897 69.2638 20.1489 70.3866 19.1297C70.2018 21.9675 69.9092 24.8473 69.6236 27.6697C68.4266 39.4507 67.2954 50.5779 74.154 55.9301C78.6942 59.4735 82.0528 62.0887 84.2326 63.7841C77.8626 62.8209 70.0702 61.5385 67.4172 60.8343Z"/>
<path d="M28.983 26.4195H27.023V40.2963H28.983V26.4195Z"/>
<path d="M59.881 40.2859L59.806 49.7653L61.766 49.7808L61.841 40.3014L59.881 40.2859Z"/>
<path d="M59.8726 17.8305C61.9152 16.5243 62.9946 14.9255 62.9946 13.2063H61.0346C61.0346 14.4915 59.8278 15.5317 58.8156 16.1785C58.2318 16.5523 57.5472 16.8995 56.7828 17.2089L57.5206 19.0247C58.3984 18.6705 59.1894 18.2687 59.8726 17.8305Z"/>
<path d="M33.1466 16.8407C34.205 17.8081 35.6708 18.6355 37.5048 19.2963C40.2768 20.2973 43.6158 20.8251 47.162 20.8251C49.0324 20.8251 50.8622 20.6753 52.5982 20.3813L52.2706 18.4493C50.6424 18.7251 48.9232 18.8651 47.162 18.8651C43.8874 18.8651 40.694 18.3639 38.1698 17.4525C36.6032 16.8869 35.3236 16.1757 34.4696 15.3945C33.6856 14.6777 33.288 13.9413 33.288 13.2077H31.328C31.328 14.4957 31.9566 15.7529 33.1466 16.8407Z"/>
<path d="M47.162 7.54886C48.7944 7.54886 50.396 7.66926 51.9206 7.90866L52.223 5.97246C50.599 5.71906 48.8952 5.58886 47.162 5.58886C43.0656 5.58886 39.1974 6.30846 36.27 7.61326L37.068 9.40386C39.749 8.20826 43.3344 7.54886 47.162 7.54886Z"/>
<path d="M47.162 9.27366V11.2337C47.9936 11.2337 48.7972 11.3065 49.5532 11.4493C50.8384 11.6929 51.8954 12.1283 52.454 12.6463C52.58 12.7639 52.7928 12.9921 52.7928 13.2091C52.7928 13.3743 52.6696 13.5451 52.566 13.6599L54.0192 14.9759C54.4994 14.4453 54.7542 13.8349 54.7542 13.2091C54.7542 12.7051 54.5862 11.9505 53.7882 11.2099C52.9552 10.4371 51.5804 9.83786 49.9186 9.52426C49.0422 9.35626 48.1154 9.27366 47.162 9.27366Z"/>
<path d="M44.2206 14.8471C43.3134 14.6245 42.542 14.2955 42.0492 13.9203C41.7202 13.6697 41.5312 13.4093 41.5312 13.2077H39.5712C39.5712 13.7957 39.7952 14.6665 40.8606 15.4785C41.5732 16.0217 42.5728 16.4613 43.753 16.7511C44.7946 17.0073 45.9734 17.1417 47.162 17.1417C48.3142 17.1417 49.4174 17.0213 50.4394 16.7819L49.9942 14.8737C49.1304 15.0753 48.1504 15.1817 47.162 15.1817C46.1288 15.1817 45.1124 15.0655 44.2206 14.8471Z"/>
</svg>

