<svg viewBox="0 0 54 53" fill="#2D2D2D" xmlns="http://www.w3.org/2000/svg">
<path d="M53.7485 42.855C53.5345 41.815 48.4965 17.372 48.0705 15.872C47.3465 13.321 46.2485 11.181 44.8065 9.50998C43.7435 8.27798 42.4715 7.29198 41.1285 6.65998C39.4535 5.87197 36.8865 5.01997 35.7895 4.66797C35.5015 3.83597 34.6765 1.91797 34.6415 1.83597L34.4805 1.46297L34.0775 1.41697C33.9025 1.39697 29.8685 0.941968 27.1715 0.918968V0.917969C27.1365 0.917969 27.1015 0.917969 27.0665 0.917969C27.0315 0.917969 26.9965 0.917969 26.9615 0.917969V0.918968C24.2645 0.941968 20.2305 1.39797 20.0555 1.41697L19.6525 1.46297L19.4925 1.83597C19.4575 1.91597 18.6635 3.76397 18.3615 4.61997C17.3685 4.93597 14.6295 5.83297 12.8725 6.65998C11.5295 7.29198 10.2575 8.27698 9.19446 9.50998C7.75245 11.181 6.65445 13.321 5.93045 15.872C5.50445 17.372 0.466454 41.816 0.252454 42.855L0.0644531 43.766L8.77746 46.23L13.1175 28.575V52.05H40.8855V28.576L45.2255 46.231L53.9385 43.767L53.7485 42.855ZM28.2295 10.112C30.1275 7.88798 32.9435 4.60697 33.8655 3.59797C34.0165 3.96297 34.1745 4.35197 34.3015 4.67997L34.1615 4.87297C33.2265 6.16997 30.6065 9.22198 28.2295 10.112ZM19.8385 4.87397L19.7855 4.80097C19.9185 4.45197 20.0975 4.00997 20.2675 3.59997C21.1875 4.61497 23.9855 7.92098 25.8545 10.144C23.4565 9.29498 20.7855 6.18497 19.8385 4.87397ZM27.0285 9.36298C25.7325 7.82098 22.4685 3.94897 21.3335 2.69097C22.7675 2.54897 25.2815 2.32697 27.0675 2.31797C28.8525 2.32697 31.3655 2.54797 32.7995 2.69097C31.6545 3.94897 28.3415 7.82498 27.0285 9.36298ZM33.5275 2.79097L33.4995 2.76297C33.5045 2.76397 33.5115 2.76397 33.5165 2.76497C33.5195 2.77297 33.5235 2.78197 33.5275 2.79097ZM20.6355 2.76297L20.6075 2.79097C20.6115 2.78197 20.6155 2.77297 20.6185 2.76397C20.6235 2.76397 20.6295 2.76297 20.6355 2.76297ZM46.6715 43.742L40.9135 20.318L38.8835 20.147V50.05H15.1175V20.147L13.0875 20.318L7.32945 43.742L2.39945 42.348C4.25345 33.358 7.54145 17.524 7.85445 16.418C9.33245 11.21 12.1665 9.20298 13.7235 8.46998C15.2025 7.77398 17.5295 6.99098 18.6615 6.62498C19.1275 7.21298 19.9295 8.16698 20.9255 9.12898C21.6535 9.83098 22.3615 10.42 23.0495 10.894V19.37H24.4495V11.715C25.3425 12.143 26.1935 12.359 26.9995 12.359C27.0005 12.359 27.0005 12.359 27.0015 12.359C27.0025 12.359 27.0025 12.359 27.0035 12.359C27.7485 12.358 28.5325 12.174 29.3525 11.808L29.3935 16.985L30.7935 16.974L30.7465 11.033C31.4985 10.536 32.2765 9.90098 33.0775 9.12798C34.0745 8.16598 34.8755 7.21098 35.3415 6.62397C36.4725 6.99097 38.7995 7.77298 40.2795 8.46898C41.8375 9.20198 44.6705 11.209 46.1485 16.417C46.4625 17.523 49.7495 33.357 51.6035 42.347L46.6715 43.742Z"/>
<path d="M3.98381 39.59L3.61981 40.9418L6.82753 41.8056L7.19153 40.4537L3.98381 39.59Z"/>
<path d="M37.8185 47.027H16.0335V48.427H37.8185V47.027Z"/>
<path d="M50.2458 39.606L46.5691 40.5785L46.9271 41.932L50.6038 40.9595L50.2458 39.606Z"/>
<path d="M35.8515 41.3279L35.6985 41.1359C35.6835 41.1169 34.1565 39.1979 33.3755 37.5999C32.6264 36.0679 32.5585 33.9409 32.5525 33.5299C32.5515 33.4919 32.5515 33.4699 32.5515 33.4669L32.5545 32.7639H20.8595L20.0625 32.7649L20.0665 33.4689C20.0665 33.4729 20.0665 33.4939 20.0665 33.5309C20.0605 33.9419 19.9925 36.0679 19.2435 37.6009C18.4625 39.1989 16.9365 41.1169 16.9205 41.1369L16.7675 41.3289V45.4059H35.8515V41.3279ZM18.1675 44.0049V41.8149C18.5935 41.2639 19.7955 39.6589 20.5005 38.2159C21.1745 36.8379 21.3785 35.1079 21.4395 34.1649H31.1775C31.2395 35.1079 31.4435 36.8379 32.1165 38.2159C32.8215 39.6589 34.0245 41.2639 34.4495 41.8149V44.0049H18.1675Z"/>
</svg>

